<?xml version="1.0" standalone="no"?>
<!DOCTYPE svg PUBLIC "-//W3C//DTD SVG 20010904//EN"
 "http://www.w3.org/TR/2001/REC-SVG-20010904/DTD/svg10.dtd">
<svg version="1.0" xmlns="http://www.w3.org/2000/svg"
 width="399.000000pt" height="398.000000pt" viewBox="0 0 399.000000 398.000000"
 preserveAspectRatio="xMidYMid meet">

<g transform="translate(0.000000,398.000000) scale(0.100000,-0.100000)"
fill="#000000" stroke="none">
<path d="M0 3516 c0 -91 4 -167 8 -170 5 -3 9 -69 10 -148 3 -329 88 -975 198
-1518 35 -168 80 -259 135 -267 12 -2 28 -8 36 -14 7 -7 25 -9 41 -6 15 3 38
-1 52 -8 14 -8 35 -14 48 -15 13 0 21 -4 18 -8 -3 -5 7 -23 22 -42 l28 -32 13
63 c7 35 26 92 42 127 16 36 29 68 29 73 0 10 -60 -10 -81 -27 -20 -18 -29
-18 -29 1 0 8 -4 23 -10 33 -11 21 -89 424 -124 647 -73 460 -93 607 -126 916
-19 181 -18 241 4 266 6 7 17 19 24 28 8 9 12 36 11 69 -2 41 -8 59 -29 82
-64 72 -164 113 -272 114 l-48 0 0 -164z"/>
<path d="M2296 3515 c-33 -9 -82 -28 -111 -43 l-51 -28 -60 28 c-113 53 -235
29 -318 -62 -86 -96 -59 -210 61 -251 21 -7 74 -13 118 -13 78 -1 79 -1 89 27
7 20 7 34 -2 47 -25 40 38 14 127 -52 67 -51 92 -51 142 -2 21 21 41 35 44 33
7 -8 -58 -100 -96 -136 -19 -17 -60 -47 -93 -66 -67 -40 -111 -41 -158 -1
-104 86 -262 46 -489 -125 -270 -204 -439 -414 -439 -548 0 -30 -50 -53 -114
-53 -61 0 -94 -15 -107 -47 -8 -22 -6 -32 9 -52 10 -15 28 -27 39 -29 15 -2
24 -16 34 -49 7 -25 27 -67 44 -93 l32 -47 -29 -32 c-15 -17 -28 -40 -28 -51
0 -27 95 -119 147 -142 34 -15 43 -24 43 -43 0 -20 8 -27 51 -39 63 -19 103
-12 95 15 -17 55 -15 60 9 22 14 -24 37 -46 49 -49 13 -3 39 -21 57 -40 28
-29 39 -34 80 -34 39 0 49 4 54 20 4 12 0 31 -8 44 -10 15 -12 28 -6 37 5 8 6
48 3 89 -9 109 -1 122 72 126 32 1 94 14 137 27 42 14 77 22 77 18 -1 -3 -7
-35 -15 -71 -8 -36 -14 -90 -15 -122 0 -43 -8 -74 -35 -132 -38 -80 -39 -110
-5 -141 22 -20 68 -22 100 -5 14 8 39 13 56 11 48 -4 74 35 74 113 l0 61 29
-50 c43 -74 104 -139 176 -187 l64 -41 -15 -38 c-21 -51 -15 -88 18 -112 35
-26 74 -15 101 28 10 17 34 55 53 85 58 92 56 164 -5 176 -24 5 -30 12 -35 43
-9 55 -7 132 6 259 l12 114 23 -93 c33 -138 80 -225 157 -296 35 -32 85 -69
110 -81 25 -13 46 -27 46 -32 0 -4 -34 -43 -75 -86 -41 -43 -75 -85 -75 -94 0
-26 38 -79 72 -100 49 -29 106 -34 174 -15 32 9 71 19 86 22 14 3 39 18 54 34
26 27 29 28 46 12 22 -20 23 -54 2 -94 -8 -17 -13 -38 -9 -46 3 -9 -4 -26 -16
-39 -20 -21 -20 -22 -2 -28 10 -3 32 -5 50 -4 21 1 53 -13 98 -40 36 -23 68
-42 71 -42 2 0 4 12 4 26 0 17 -12 36 -34 56 l-34 30 24 46 c13 25 24 53 24
63 0 26 12 24 41 -7 52 -56 129 -69 204 -33 26 12 30 20 30 54 0 39 -1 40 -54
61 -59 24 -79 49 -83 107 -2 31 4 41 50 82 61 55 110 146 119 222 4 40 10 54
25 59 11 3 49 34 85 69 65 63 65 63 66 122 1 102 -15 155 -80 255 -34 51 -84
136 -112 188 -27 52 -64 110 -81 128 -16 18 -30 39 -30 47 0 17 -57 65 -92 77
-23 8 -26 14 -22 37 8 40 -13 76 -158 261 -87 111 -172 190 -233 216 -20 8
-65 18 -99 21 -70 6 -67 7 -127 -71 -16 -21 -29 -47 -29 -57 0 -24 -2 -24 -59
9 l-48 27 53 59 c156 172 149 378 -16 461 -46 24 -142 28 -214 10z m-385 -682
c310 -384 644 -688 934 -851 55 -31 129 -83 165 -116 78 -73 255 -193 306
-209 34 -10 36 -13 31 -44 -6 -35 -41 -85 -99 -140 l-34 -33 -92 25 c-50 13
-135 40 -189 60 -54 19 -111 40 -127 45 -17 5 -78 37 -137 71 -99 56 -109 66
-128 108 -29 69 -59 196 -53 227 10 55 -75 77 -105 27 -9 -16 -34 -43 -55 -62
l-38 -33 -134 132 -135 133 20 38 c10 21 33 54 49 73 37 41 38 70 4 92 -23 16
-28 16 -59 1 -18 -9 -48 -34 -66 -56 -18 -23 -35 -41 -38 -41 -20 0 -234 302
-315 441 l-26 46 74 52 c73 50 149 90 173 91 6 0 40 -35 74 -77z m-361 -142
c5 -11 10 -38 10 -60 0 -78 -90 -131 -164 -96 -20 10 -36 21 -36 25 0 11 158
150 170 150 5 0 14 -9 20 -19z m98 -129 c3 -16 -2 -22 -17 -22 -24 0 -35 15
-27 36 9 23 40 13 44 -14z m1585 -126 c26 -10 35 -21 39 -44 4 -27 1 -31 -26
-36 -16 -4 -32 -3 -35 2 -3 4 -21 30 -40 57 l-34 48 31 -6 c17 -3 46 -13 65
-21z m-88 -142 c12 -8 43 -16 69 -17 25 -1 46 -4 46 -7 -1 -18 -33 -38 -79
-48 l-53 -12 -42 47 c-65 75 -75 83 -91 77 -8 -4 -15 -15 -15 -26 0 -17 -3
-18 -15 -8 -20 17 -19 27 4 35 11 3 31 26 46 51 l26 45 41 -61 c22 -34 51 -68
63 -76z"/>
<path d="M2628 1929 c-31 -17 -22 -59 21 -104 22 -22 64 -76 93 -120 61 -90
94 -111 128 -80 72 65 -62 267 -205 308 -11 4 -28 2 -37 -4z"/>
<path d="M1466 1001 c-16 -18 -16 -19 15 -30 18 -6 34 -10 35 -8 2 1 -5 15
-15 30 -17 27 -18 27 -35 8z"/>
<path d="M2995 951 c-3 -5 9 -20 27 -32 l31 -23 -18 32 c-20 33 -30 39 -40 23z"/>
<path d="M2339 659 c-7 -5 -45 -9 -83 -9 l-68 0 110 -74 c61 -41 159 -114 219
-162 106 -86 107 -86 52 -28 -71 75 -100 131 -106 206 l-6 58 -34 0 c-19 0
-42 4 -52 9 -10 6 -23 6 -32 0z"/>
<path d="M2694 269 c58 -54 70 -71 72 -101 2 -23 19 -59 49 -102 l47 -66 179
0 180 0 -22 33 c-20 28 -120 158 -140 181 -4 4 -32 1 -62 -8 -100 -29 -178
-15 -262 48 -95 71 -105 74 -41 15z"/>
</g>
</svg>
